%TF.GenerationSoftware,KiCad,Pcbnew,(6.0.7)*%
%TF.CreationDate,2022-09-24T21:41:20+01:00*%
%TF.ProjectId,mini_jellies,6d696e69-5f6a-4656-9c6c-6965732e6b69,rev?*%
%TF.SameCoordinates,Original*%
%TF.FileFunction,Copper,L2,Bot*%
%TF.FilePolarity,Positive*%
%FSLAX46Y46*%
G04 Gerber Fmt 4.6, Leading zero omitted, Abs format (unit mm)*
G04 Created by KiCad (PCBNEW (6.0.7)) date 2022-09-24 21:41:20*
%MOMM*%
%LPD*%
G01*
G04 APERTURE LIST*
G04 Aperture macros list*
%AMRoundRect*
0 Rectangle with rounded corners*
0 $1 Rounding radius*
0 $2 $3 $4 $5 $6 $7 $8 $9 X,Y pos of 4 corners*
0 Add a 4 corners polygon primitive as box body*
4,1,4,$2,$3,$4,$5,$6,$7,$8,$9,$2,$3,0*
0 Add four circle primitives for the rounded corners*
1,1,$1+$1,$2,$3*
1,1,$1+$1,$4,$5*
1,1,$1+$1,$6,$7*
1,1,$1+$1,$8,$9*
0 Add four rect primitives between the rounded corners*
20,1,$1+$1,$2,$3,$4,$5,0*
20,1,$1+$1,$4,$5,$6,$7,0*
20,1,$1+$1,$6,$7,$8,$9,0*
20,1,$1+$1,$8,$9,$2,$3,0*%
G04 Aperture macros list end*
%TA.AperFunction,ComponentPad*%
%ADD10C,1.600000*%
%TD*%
%TA.AperFunction,ComponentPad*%
%ADD11RoundRect,0.250000X0.845000X-0.620000X0.845000X0.620000X-0.845000X0.620000X-0.845000X-0.620000X0*%
%TD*%
%TA.AperFunction,ComponentPad*%
%ADD12O,2.190000X1.740000*%
%TD*%
%TA.AperFunction,ComponentPad*%
%ADD13RoundRect,0.250000X-0.845000X0.620000X-0.845000X-0.620000X0.845000X-0.620000X0.845000X0.620000X0*%
%TD*%
%TA.AperFunction,ComponentPad*%
%ADD14R,1.600000X2.400000*%
%TD*%
%TA.AperFunction,ComponentPad*%
%ADD15O,1.600000X2.400000*%
%TD*%
%TA.AperFunction,ComponentPad*%
%ADD16O,1.700000X1.700000*%
%TD*%
%TA.AperFunction,ComponentPad*%
%ADD17R,1.700000X1.700000*%
%TD*%
%TA.AperFunction,ComponentPad*%
%ADD18RoundRect,0.875000X-0.875000X0.875000X-0.875000X-0.875000X0.875000X-0.875000X0.875000X0.875000X0*%
%TD*%
%TA.AperFunction,ComponentPad*%
%ADD19RoundRect,0.750000X-1.000000X0.750000X-1.000000X-0.750000X1.000000X-0.750000X1.000000X0.750000X0*%
%TD*%
%TA.AperFunction,ComponentPad*%
%ADD20R,3.500000X3.500000*%
%TD*%
%TA.AperFunction,ComponentPad*%
%ADD21RoundRect,0.249999X1.300001X-1.300001X1.300001X1.300001X-1.300001X1.300001X-1.300001X-1.300001X0*%
%TD*%
%TA.AperFunction,ComponentPad*%
%ADD22C,3.100000*%
%TD*%
%TA.AperFunction,Conductor*%
%ADD23C,0.250000*%
%TD*%
%TA.AperFunction,Conductor*%
%ADD24C,2.000000*%
%TD*%
%TA.AperFunction,Conductor*%
%ADD25C,1.000000*%
%TD*%
%TA.AperFunction,Conductor*%
%ADD26C,0.500000*%
%TD*%
%TA.AperFunction,Conductor*%
%ADD27C,1.500000*%
%TD*%
G04 APERTURE END LIST*
D10*
%TO.P,C1,2*%
%TO.N,GND*%
X100482233Y-59482233D03*
%TO.P,C1,1*%
%TO.N,+5V*%
X104017767Y-63017767D03*
%TD*%
D11*
%TO.P,J3,1,Pin_1*%
%TO.N,GND*%
X100965000Y-75390000D03*
D12*
%TO.P,J3,2,Pin_2*%
%TO.N,Net-(J3-Pad2)*%
X100965000Y-72850000D03*
%TO.P,J3,3,Pin_3*%
%TO.N,+5V*%
X100965000Y-70310000D03*
%TD*%
D13*
%TO.P,J7,1,Pin_1*%
%TO.N,GND*%
X139025000Y-70485000D03*
D12*
%TO.P,J7,2,Pin_2*%
%TO.N,Net-(J7-Pad2)*%
X139025000Y-73025000D03*
%TO.P,J7,3,Pin_3*%
%TO.N,+5V*%
X139025000Y-75565000D03*
%TD*%
D11*
%TO.P,J5,1,Pin_1*%
%TO.N,GND*%
X100985000Y-93110000D03*
D12*
%TO.P,J5,2,Pin_2*%
%TO.N,Net-(J5-Pad2)*%
X100985000Y-90570000D03*
%TO.P,J5,3,Pin_3*%
%TO.N,+5V*%
X100985000Y-88030000D03*
%TD*%
D14*
%TO.P,U1,1,QB*%
%TO.N,Net-(J4-Pad2)*%
X116425000Y-56025000D03*
D15*
%TO.P,U1,2,QC*%
%TO.N,Net-(J5-Pad2)*%
X118965000Y-56025000D03*
%TO.P,U1,3,QD*%
%TO.N,Net-(J6-Pad2)*%
X121505000Y-56025000D03*
%TO.P,U1,4,QE*%
%TO.N,Net-(J7-Pad2)*%
X124045000Y-56025000D03*
%TO.P,U1,5,QF*%
%TO.N,Net-(J8-Pad2)*%
X126585000Y-56025000D03*
%TO.P,U1,6,QG*%
%TO.N,Net-(J9-Pad2)*%
X129125000Y-56025000D03*
%TO.P,U1,7,QH*%
%TO.N,Net-(J10-Pad2)*%
X131665000Y-56025000D03*
%TO.P,U1,8,GND*%
%TO.N,GND*%
X134205000Y-56025000D03*
%TO.P,U1,9,QH'*%
%TO.N,unconnected-(U1-Pad9)*%
X134205000Y-48405000D03*
%TO.P,U1,10,~{SRCLR}*%
%TO.N,+5V*%
X131665000Y-48405000D03*
%TO.P,U1,11,SRCLK*%
%TO.N,/CLOCK*%
X129125000Y-48405000D03*
%TO.P,U1,12,RCLK*%
%TO.N,/LATCH*%
X126585000Y-48405000D03*
%TO.P,U1,13,~{OE}*%
%TO.N,GND*%
X124045000Y-48405000D03*
%TO.P,U1,14,SER*%
%TO.N,/DATA*%
X121505000Y-48405000D03*
%TO.P,U1,15,QA*%
%TO.N,Net-(J3-Pad2)*%
X118965000Y-48405000D03*
%TO.P,U1,16,VCC*%
%TO.N,+5V*%
X116425000Y-48405000D03*
%TD*%
D16*
%TO.P,U2,1,GPIO0*%
%TO.N,/DATA*%
X128890000Y-109630000D03*
%TO.P,U2,2,GPIO1*%
%TO.N,/CLOCK*%
X128890000Y-107090000D03*
D17*
%TO.P,U2,3,GND*%
%TO.N,unconnected-(U2-Pad3)*%
X128890000Y-104550000D03*
D16*
%TO.P,U2,4,GPIO2*%
%TO.N,/LATCH*%
X128890000Y-102010000D03*
%TO.P,U2,5,GPIO3*%
%TO.N,unconnected-(U2-Pad5)*%
X128890000Y-99470000D03*
%TO.P,U2,6,GPIO4*%
%TO.N,unconnected-(U2-Pad6)*%
X128890000Y-96930000D03*
%TO.P,U2,7,GPIO5*%
%TO.N,unconnected-(U2-Pad7)*%
X128890000Y-94390000D03*
D17*
%TO.P,U2,8,GND*%
%TO.N,unconnected-(U2-Pad8)*%
X128890000Y-91850000D03*
D16*
%TO.P,U2,9,GPIO6*%
%TO.N,unconnected-(U2-Pad9)*%
X128890000Y-89310000D03*
%TO.P,U2,10,GPIO7*%
%TO.N,unconnected-(U2-Pad10)*%
X128890000Y-86770000D03*
%TO.P,U2,11,GPIO8*%
%TO.N,unconnected-(U2-Pad11)*%
X128890000Y-84230000D03*
%TO.P,U2,12,GPIO9*%
%TO.N,unconnected-(U2-Pad12)*%
X128890000Y-81690000D03*
D17*
%TO.P,U2,13,GND*%
%TO.N,unconnected-(U2-Pad13)*%
X128890000Y-79150000D03*
D16*
%TO.P,U2,14,GPIO10*%
%TO.N,unconnected-(U2-Pad14)*%
X128890000Y-76610000D03*
%TO.P,U2,15,GPIO11*%
%TO.N,unconnected-(U2-Pad15)*%
X128890000Y-74070000D03*
%TO.P,U2,16,GPIO12*%
%TO.N,unconnected-(U2-Pad16)*%
X128890000Y-71530000D03*
%TO.P,U2,17,GPIO13*%
%TO.N,unconnected-(U2-Pad17)*%
X128890000Y-68990000D03*
D17*
%TO.P,U2,18,GND*%
%TO.N,GND*%
X128890000Y-66450000D03*
D16*
%TO.P,U2,19,GPIO14*%
%TO.N,unconnected-(U2-Pad19)*%
X128890000Y-63910000D03*
%TO.P,U2,20,GPIO15*%
%TO.N,unconnected-(U2-Pad20)*%
X128890000Y-61370000D03*
%TO.P,U2,21,GPIO16*%
%TO.N,unconnected-(U2-Pad21)*%
X111110000Y-61370000D03*
%TO.P,U2,22,GPIO17*%
%TO.N,unconnected-(U2-Pad22)*%
X111110000Y-63910000D03*
D17*
%TO.P,U2,23,GND*%
%TO.N,GND*%
X111110000Y-66450000D03*
D16*
%TO.P,U2,24,GPIO18*%
%TO.N,unconnected-(U2-Pad24)*%
X111110000Y-68990000D03*
%TO.P,U2,25,GPIO19*%
%TO.N,unconnected-(U2-Pad25)*%
X111110000Y-71530000D03*
%TO.P,U2,26,GPIO20*%
%TO.N,unconnected-(U2-Pad26)*%
X111110000Y-74070000D03*
%TO.P,U2,27,GPIO21*%
%TO.N,unconnected-(U2-Pad27)*%
X111110000Y-76610000D03*
D17*
%TO.P,U2,28,GND*%
%TO.N,unconnected-(U2-Pad28)*%
X111110000Y-79150000D03*
D16*
%TO.P,U2,29,GPIO22*%
%TO.N,unconnected-(U2-Pad29)*%
X111110000Y-81690000D03*
%TO.P,U2,30,RUN*%
%TO.N,unconnected-(U2-Pad30)*%
X111110000Y-84230000D03*
%TO.P,U2,31,GPIO26_ADC0*%
%TO.N,unconnected-(U2-Pad31)*%
X111110000Y-86770000D03*
%TO.P,U2,32,GPIO27_ADC1*%
%TO.N,unconnected-(U2-Pad32)*%
X111110000Y-89310000D03*
D17*
%TO.P,U2,33,AGND*%
%TO.N,unconnected-(U2-Pad33)*%
X111110000Y-91850000D03*
D16*
%TO.P,U2,34,GPIO28_ADC2*%
%TO.N,unconnected-(U2-Pad34)*%
X111110000Y-94390000D03*
%TO.P,U2,35,ADC_VREF*%
%TO.N,unconnected-(U2-Pad35)*%
X111110000Y-96930000D03*
%TO.P,U2,36,3V3*%
%TO.N,unconnected-(U2-Pad36)*%
X111110000Y-99470000D03*
%TO.P,U2,37,3V3_EN*%
%TO.N,unconnected-(U2-Pad37)*%
X111110000Y-102010000D03*
D17*
%TO.P,U2,38,GND*%
%TO.N,GND*%
X111110000Y-104550000D03*
D16*
%TO.P,U2,39,VSYS*%
%TO.N,+5V*%
X111110000Y-107090000D03*
%TO.P,U2,40,VBUS*%
%TO.N,unconnected-(U2-Pad40)*%
X111110000Y-109630000D03*
%TO.P,U2,41,SWCLK*%
%TO.N,unconnected-(U2-Pad41)*%
X122540000Y-61600000D03*
D17*
%TO.P,U2,42,GND*%
%TO.N,unconnected-(U2-Pad42)*%
X120000000Y-61600000D03*
D16*
%TO.P,U2,43,SWDIO*%
%TO.N,unconnected-(U2-Pad43)*%
X117460000Y-61600000D03*
%TD*%
D13*
%TO.P,J8,1,Pin_1*%
%TO.N,GND*%
X139025000Y-79315000D03*
D12*
%TO.P,J8,2,Pin_2*%
%TO.N,Net-(J8-Pad2)*%
X139025000Y-81855000D03*
%TO.P,J8,3,Pin_3*%
%TO.N,+5V*%
X139025000Y-84395000D03*
%TD*%
D18*
%TO.P,J2,3*%
%TO.N,GND*%
X105157500Y-53900000D03*
D19*
%TO.P,J2,2*%
X109857500Y-50900000D03*
D20*
%TO.P,J2,1*%
%TO.N,+5V*%
X109857500Y-56900000D03*
%TD*%
D11*
%TO.P,J4,1,Pin_1*%
%TO.N,GND*%
X100965000Y-84220000D03*
D12*
%TO.P,J4,2,Pin_2*%
%TO.N,Net-(J4-Pad2)*%
X100965000Y-81680000D03*
%TO.P,J4,3,Pin_3*%
%TO.N,+5V*%
X100965000Y-79140000D03*
%TD*%
D21*
%TO.P,J1,1,Pin_1*%
%TO.N,GND*%
X140500000Y-63500000D03*
D22*
%TO.P,J1,2,Pin_2*%
%TO.N,+5V*%
X140500000Y-57500000D03*
%TD*%
D11*
%TO.P,J6,1,Pin_1*%
%TO.N,GND*%
X100985000Y-102000000D03*
D12*
%TO.P,J6,2,Pin_2*%
%TO.N,Net-(J6-Pad2)*%
X100985000Y-99460000D03*
%TO.P,J6,3,Pin_3*%
%TO.N,+5V*%
X100985000Y-96920000D03*
%TD*%
D13*
%TO.P,J10,1,Pin_1*%
%TO.N,GND*%
X139045000Y-97075000D03*
D12*
%TO.P,J10,2,Pin_2*%
%TO.N,Net-(J10-Pad2)*%
X139045000Y-99615000D03*
%TO.P,J10,3,Pin_3*%
%TO.N,+5V*%
X139045000Y-102155000D03*
%TD*%
D13*
%TO.P,J9,1,Pin_1*%
%TO.N,GND*%
X139005000Y-88185000D03*
D12*
%TO.P,J9,2,Pin_2*%
%TO.N,Net-(J9-Pad2)*%
X139005000Y-90725000D03*
%TO.P,J9,3,Pin_3*%
%TO.N,+5V*%
X139005000Y-93265000D03*
%TD*%
D23*
%TO.N,Net-(J3-Pad2)*%
X99250000Y-71135000D02*
X100965000Y-72850000D01*
X99250000Y-64250000D02*
X99250000Y-71135000D01*
X97500000Y-62500000D02*
X99250000Y-64250000D01*
X97500000Y-58000000D02*
X97500000Y-62500000D01*
X107500000Y-55250000D02*
X106500000Y-56250000D01*
X106500000Y-56250000D02*
X99250000Y-56250000D01*
X99250000Y-56250000D02*
X97500000Y-58000000D01*
X110250000Y-46750000D02*
X107500000Y-49500000D01*
X107500000Y-49500000D02*
X107500000Y-55250000D01*
X118965000Y-47715000D02*
X118000000Y-46750000D01*
X118965000Y-48405000D02*
X118965000Y-47715000D01*
X118000000Y-46750000D02*
X110250000Y-46750000D01*
D24*
%TO.N,GND*%
X128890000Y-66450000D02*
X130700000Y-66450000D01*
X130700000Y-66450000D02*
X133500000Y-69250000D01*
X133500000Y-69250000D02*
X133500000Y-75900000D01*
X122300000Y-66450000D02*
X128890000Y-66450000D01*
D23*
%TO.N,Net-(J6-Pad2)*%
X112500000Y-62000000D02*
X111900000Y-62600000D01*
X112500000Y-60000000D02*
X112500000Y-62000000D01*
X114250000Y-58250000D02*
X112500000Y-60000000D01*
X119280000Y-58250000D02*
X114250000Y-58250000D01*
X111900000Y-62600000D02*
X109850000Y-62600000D01*
X121505000Y-56025000D02*
X119280000Y-58250000D01*
%TO.N,Net-(J5-Pad2)*%
X103250000Y-88305000D02*
X100985000Y-90570000D01*
X103250000Y-66750000D02*
X103250000Y-88305000D01*
X98500000Y-58500000D02*
X98500000Y-62000000D01*
X105250000Y-57250000D02*
X99750000Y-57250000D01*
X114000000Y-57750000D02*
X112000000Y-59750000D01*
X118250000Y-57750000D02*
X114000000Y-57750000D01*
X118965000Y-57035000D02*
X118250000Y-57750000D01*
X99750000Y-57250000D02*
X98500000Y-58500000D01*
X98500000Y-62000000D02*
X103250000Y-66750000D01*
X118965000Y-56025000D02*
X118965000Y-57035000D01*
X112000000Y-59750000D02*
X107750000Y-59750000D01*
X107750000Y-59750000D02*
X105250000Y-57250000D01*
%TO.N,Net-(J4-Pad2)*%
X102750000Y-79895000D02*
X100965000Y-81680000D01*
X102500000Y-72250000D02*
X102750000Y-72500000D01*
X102500000Y-66750000D02*
X102500000Y-72250000D01*
X98000000Y-62250000D02*
X102500000Y-66750000D01*
X98000000Y-58250000D02*
X98000000Y-62250000D01*
X99500000Y-56750000D02*
X98000000Y-58250000D01*
X105500000Y-56750000D02*
X99500000Y-56750000D01*
X102750000Y-72500000D02*
X102750000Y-79895000D01*
X111750000Y-59250000D02*
X108000000Y-59250000D01*
X114975000Y-56025000D02*
X111750000Y-59250000D01*
X108000000Y-59250000D02*
X105500000Y-56750000D01*
X116425000Y-56025000D02*
X114975000Y-56025000D01*
D24*
%TO.N,GND*%
X103732233Y-59482233D02*
X100482233Y-59482233D01*
X110700000Y-66450000D02*
X103732233Y-59482233D01*
X111110000Y-66450000D02*
X110700000Y-66450000D01*
D23*
%TO.N,Net-(J6-Pad2)*%
X103750000Y-96695000D02*
X100985000Y-99460000D01*
X103750000Y-66500000D02*
X103750000Y-96695000D01*
X99000000Y-61750000D02*
X103750000Y-66500000D01*
X99000000Y-58750000D02*
X99000000Y-61750000D01*
X100000000Y-57750000D02*
X99000000Y-58750000D01*
X109850000Y-62600000D02*
X105000000Y-57750000D01*
X105000000Y-57750000D02*
X100000000Y-57750000D01*
D25*
%TO.N,GND*%
X111110000Y-104550000D02*
X103535000Y-104550000D01*
X103535000Y-104550000D02*
X100985000Y-102000000D01*
D24*
X122300000Y-66450000D02*
X111110000Y-66450000D01*
%TO.N,+5V*%
X133750000Y-52250000D02*
X131250000Y-52250000D01*
X139000000Y-57500000D02*
X133750000Y-52250000D01*
X140500000Y-57500000D02*
X139000000Y-57500000D01*
%TO.N,GND*%
X136700000Y-79100000D02*
X137900000Y-79100000D01*
D26*
X134205000Y-57205000D02*
X140500000Y-63500000D01*
X134205000Y-56025000D02*
X134205000Y-57205000D01*
D27*
X139025000Y-79315000D02*
X138115000Y-79315000D01*
X138115000Y-79315000D02*
X137900000Y-79100000D01*
D24*
X133500000Y-75900000D02*
X136700000Y-79100000D01*
%TO.N,+5V*%
X139265000Y-93265000D02*
X141750000Y-95750000D01*
X116250000Y-52250000D02*
X113250000Y-52250000D01*
D26*
X116425000Y-48405000D02*
X116425000Y-52075000D01*
D24*
X109857500Y-55642500D02*
X109857500Y-56900000D01*
X141750000Y-95750000D02*
X141750000Y-100500000D01*
X141750000Y-100500000D02*
X140095000Y-102155000D01*
X139005000Y-93265000D02*
X139265000Y-93265000D01*
D26*
X131665000Y-48405000D02*
X131665000Y-51835000D01*
D24*
X140095000Y-102155000D02*
X139045000Y-102155000D01*
D26*
X116425000Y-52075000D02*
X116250000Y-52250000D01*
D24*
X113250000Y-52250000D02*
X109857500Y-55642500D01*
X131250000Y-52250000D02*
X116250000Y-52250000D01*
D26*
X131665000Y-51835000D02*
X131250000Y-52250000D01*
D23*
%TO.N,Net-(J7-Pad2)*%
X131750000Y-53750000D02*
X133000000Y-55000000D01*
X124045000Y-56025000D02*
X126320000Y-53750000D01*
X138000000Y-62250000D02*
X138000000Y-65250000D01*
X133000000Y-55000000D02*
X133000000Y-57250000D01*
X133000000Y-57250000D02*
X138000000Y-62250000D01*
X138000000Y-65250000D02*
X140700000Y-67950000D01*
X139175000Y-73025000D02*
X139025000Y-73025000D01*
X126320000Y-53750000D02*
X131750000Y-53750000D01*
X140700000Y-67950000D02*
X140700000Y-71500000D01*
X140700000Y-71500000D02*
X139175000Y-73025000D01*
%TO.N,Net-(J8-Pad2)*%
X129500000Y-54250000D02*
X130250000Y-55000000D01*
X130250000Y-56750000D02*
X131250000Y-57750000D01*
X141000000Y-77900000D02*
X141000000Y-80500000D01*
X130250000Y-55000000D02*
X130250000Y-56750000D01*
X128360000Y-54250000D02*
X129500000Y-54250000D01*
X126585000Y-56025000D02*
X128360000Y-54250000D01*
X131250000Y-57750000D02*
X132750000Y-57750000D01*
X137500000Y-62500000D02*
X137500000Y-76250000D01*
X132750000Y-57750000D02*
X137500000Y-62500000D01*
X140400000Y-77300000D02*
X141000000Y-77900000D01*
X138550000Y-77300000D02*
X140400000Y-77300000D01*
X141000000Y-80500000D02*
X139645000Y-81855000D01*
X137500000Y-76250000D02*
X138550000Y-77300000D01*
%TO.N,Net-(J9-Pad2)*%
X140500000Y-78100000D02*
X140500000Y-80250000D01*
X129125000Y-56025000D02*
X129125000Y-56375000D01*
X132500000Y-58250000D02*
X137000000Y-62750000D01*
X138150000Y-80600000D02*
X137200000Y-81550000D01*
X137000000Y-76500000D02*
X138250000Y-77750000D01*
X140500000Y-80250000D02*
X140150000Y-80600000D01*
X131000000Y-58250000D02*
X132500000Y-58250000D01*
X129125000Y-56375000D02*
X131000000Y-58250000D01*
X140150000Y-77750000D02*
X140500000Y-78100000D01*
X137200000Y-88920000D02*
X139005000Y-90725000D01*
X138250000Y-77750000D02*
X140150000Y-77750000D01*
X137200000Y-81550000D02*
X137200000Y-88920000D01*
X137000000Y-62750000D02*
X137000000Y-76500000D01*
X140150000Y-80600000D02*
X138150000Y-80600000D01*
%TD*%
M02*
