%TF.GenerationSoftware,KiCad,Pcbnew,(6.0.7)*%
%TF.CreationDate,2022-09-24T21:41:20+01:00*%
%TF.ProjectId,mini_jellies,6d696e69-5f6a-4656-9c6c-6965732e6b69,rev?*%
%TF.SameCoordinates,Original*%
%TF.FileFunction,Soldermask,Bot*%
%TF.FilePolarity,Negative*%
%FSLAX46Y46*%
G04 Gerber Fmt 4.6, Leading zero omitted, Abs format (unit mm)*
G04 Created by KiCad (PCBNEW (6.0.7)) date 2022-09-24 21:41:20*
%MOMM*%
%LPD*%
G01*
G04 APERTURE LIST*
G04 Aperture macros list*
%AMRoundRect*
0 Rectangle with rounded corners*
0 $1 Rounding radius*
0 $2 $3 $4 $5 $6 $7 $8 $9 X,Y pos of 4 corners*
0 Add a 4 corners polygon primitive as box body*
4,1,4,$2,$3,$4,$5,$6,$7,$8,$9,$2,$3,0*
0 Add four circle primitives for the rounded corners*
1,1,$1+$1,$2,$3*
1,1,$1+$1,$4,$5*
1,1,$1+$1,$6,$7*
1,1,$1+$1,$8,$9*
0 Add four rect primitives between the rounded corners*
20,1,$1+$1,$2,$3,$4,$5,0*
20,1,$1+$1,$4,$5,$6,$7,0*
20,1,$1+$1,$6,$7,$8,$9,0*
20,1,$1+$1,$8,$9,$2,$3,0*%
G04 Aperture macros list end*
%ADD10C,1.600000*%
%ADD11C,3.200000*%
%ADD12RoundRect,0.250000X0.845000X-0.620000X0.845000X0.620000X-0.845000X0.620000X-0.845000X-0.620000X0*%
%ADD13O,2.190000X1.740000*%
%ADD14RoundRect,0.250000X-0.845000X0.620000X-0.845000X-0.620000X0.845000X-0.620000X0.845000X0.620000X0*%
%ADD15R,1.600000X2.400000*%
%ADD16O,1.600000X2.400000*%
%ADD17O,1.500000X1.500000*%
%ADD18O,1.800000X1.800000*%
%ADD19O,1.700000X1.700000*%
%ADD20R,1.700000X1.700000*%
%ADD21RoundRect,0.875000X-0.875000X0.875000X-0.875000X-0.875000X0.875000X-0.875000X0.875000X0.875000X0*%
%ADD22RoundRect,0.750000X-1.000000X0.750000X-1.000000X-0.750000X1.000000X-0.750000X1.000000X0.750000X0*%
%ADD23R,3.500000X3.500000*%
%ADD24RoundRect,0.249999X1.300001X-1.300001X1.300001X1.300001X-1.300001X1.300001X-1.300001X-1.300001X0*%
%ADD25C,3.100000*%
G04 APERTURE END LIST*
D10*
%TO.C,C1*%
X100482233Y-59482233D03*
X104017767Y-63017767D03*
%TD*%
D11*
%TO.C,H1*%
X100500000Y-49500000D03*
%TD*%
%TO.C,H3*%
X100500000Y-108500000D03*
%TD*%
D12*
%TO.C,J3*%
X100965000Y-75390000D03*
D13*
X100965000Y-72850000D03*
X100965000Y-70310000D03*
%TD*%
D14*
%TO.C,J7*%
X139025000Y-70485000D03*
D13*
X139025000Y-73025000D03*
X139025000Y-75565000D03*
%TD*%
D12*
%TO.C,J5*%
X100985000Y-93110000D03*
D13*
X100985000Y-90570000D03*
X100985000Y-88030000D03*
%TD*%
D15*
%TO.C,U1*%
X116425000Y-56025000D03*
D16*
X118965000Y-56025000D03*
X121505000Y-56025000D03*
X124045000Y-56025000D03*
X126585000Y-56025000D03*
X129125000Y-56025000D03*
X131665000Y-56025000D03*
X134205000Y-56025000D03*
X134205000Y-48405000D03*
X131665000Y-48405000D03*
X129125000Y-48405000D03*
X126585000Y-48405000D03*
X124045000Y-48405000D03*
X121505000Y-48405000D03*
X118965000Y-48405000D03*
X116425000Y-48405000D03*
%TD*%
D17*
%TO.C,U2*%
X117575000Y-106470000D03*
D18*
X122725000Y-109500000D03*
D17*
X122425000Y-106470000D03*
D18*
X117275000Y-109500000D03*
D19*
X128890000Y-109630000D03*
X128890000Y-107090000D03*
D20*
X128890000Y-104550000D03*
D19*
X128890000Y-102010000D03*
X128890000Y-99470000D03*
X128890000Y-96930000D03*
X128890000Y-94390000D03*
D20*
X128890000Y-91850000D03*
D19*
X128890000Y-89310000D03*
X128890000Y-86770000D03*
X128890000Y-84230000D03*
X128890000Y-81690000D03*
D20*
X128890000Y-79150000D03*
D19*
X128890000Y-76610000D03*
X128890000Y-74070000D03*
X128890000Y-71530000D03*
X128890000Y-68990000D03*
D20*
X128890000Y-66450000D03*
D19*
X128890000Y-63910000D03*
X128890000Y-61370000D03*
X111110000Y-61370000D03*
X111110000Y-63910000D03*
D20*
X111110000Y-66450000D03*
D19*
X111110000Y-68990000D03*
X111110000Y-71530000D03*
X111110000Y-74070000D03*
X111110000Y-76610000D03*
D20*
X111110000Y-79150000D03*
D19*
X111110000Y-81690000D03*
X111110000Y-84230000D03*
X111110000Y-86770000D03*
X111110000Y-89310000D03*
D20*
X111110000Y-91850000D03*
D19*
X111110000Y-94390000D03*
X111110000Y-96930000D03*
X111110000Y-99470000D03*
X111110000Y-102010000D03*
D20*
X111110000Y-104550000D03*
D19*
X111110000Y-107090000D03*
X111110000Y-109630000D03*
X122540000Y-61600000D03*
D20*
X120000000Y-61600000D03*
D19*
X117460000Y-61600000D03*
%TD*%
D14*
%TO.C,J8*%
X139025000Y-79315000D03*
D13*
X139025000Y-81855000D03*
X139025000Y-84395000D03*
%TD*%
D11*
%TO.C,H4*%
X139500000Y-108500000D03*
%TD*%
D21*
%TO.C,J2*%
X105157500Y-53900000D03*
D22*
X109857500Y-50900000D03*
D23*
X109857500Y-56900000D03*
%TD*%
D12*
%TO.C,J4*%
X100965000Y-84220000D03*
D13*
X100965000Y-81680000D03*
X100965000Y-79140000D03*
%TD*%
D24*
%TO.C,J1*%
X140500000Y-63500000D03*
D25*
X140500000Y-57500000D03*
%TD*%
D11*
%TO.C,H2*%
X139500000Y-49500000D03*
%TD*%
D12*
%TO.C,J6*%
X100985000Y-102000000D03*
D13*
X100985000Y-99460000D03*
X100985000Y-96920000D03*
%TD*%
D14*
%TO.C,J10*%
X139045000Y-97075000D03*
D13*
X139045000Y-99615000D03*
X139045000Y-102155000D03*
%TD*%
D14*
%TO.C,J9*%
X139005000Y-88185000D03*
D13*
X139005000Y-90725000D03*
X139005000Y-93265000D03*
%TD*%
M02*
