%TF.GenerationSoftware,KiCad,Pcbnew,(6.0.7)*%
%TF.CreationDate,2022-09-24T21:41:20+01:00*%
%TF.ProjectId,mini_jellies,6d696e69-5f6a-4656-9c6c-6965732e6b69,rev?*%
%TF.SameCoordinates,Original*%
%TF.FileFunction,Legend,Top*%
%TF.FilePolarity,Positive*%
%FSLAX46Y46*%
G04 Gerber Fmt 4.6, Leading zero omitted, Abs format (unit mm)*
G04 Created by KiCad (PCBNEW (6.0.7)) date 2022-09-24 21:41:20*
%MOMM*%
%LPD*%
G01*
G04 APERTURE LIST*
%ADD10C,0.300000*%
%ADD11C,0.150000*%
%ADD12C,0.120000*%
%ADD13C,0.500000*%
G04 APERTURE END LIST*
D10*
X98821428Y-56857142D02*
X97678571Y-56857142D01*
X104821428Y-56857142D02*
X103678571Y-56857142D01*
X104250000Y-57428571D02*
X104250000Y-56285714D01*
D11*
%TO.C,C1*%
X99388832Y-62528595D02*
X98984771Y-62124534D01*
X99186801Y-62326564D02*
X99893908Y-61619458D01*
X99725549Y-61653129D01*
X99590862Y-61653129D01*
X99489847Y-61619458D01*
X100533671Y-62259221D02*
X100601015Y-62326564D01*
X100634687Y-62427580D01*
X100634687Y-62494923D01*
X100601015Y-62595938D01*
X100500000Y-62764297D01*
X100331641Y-62932656D01*
X100163282Y-63033671D01*
X100062267Y-63067343D01*
X99994923Y-63067343D01*
X99893908Y-63033671D01*
X99826564Y-62966328D01*
X99792893Y-62865312D01*
X99792893Y-62797969D01*
X99826564Y-62696954D01*
X99927580Y-62528595D01*
X100095938Y-62360236D01*
X100264297Y-62259221D01*
X100365312Y-62225549D01*
X100432656Y-62225549D01*
X100533671Y-62259221D01*
X101207106Y-62932656D02*
X101274450Y-63000000D01*
X101308122Y-63101015D01*
X101308122Y-63168358D01*
X101274450Y-63269374D01*
X101173435Y-63437732D01*
X101005076Y-63606091D01*
X100836717Y-63707106D01*
X100735702Y-63740778D01*
X100668358Y-63740778D01*
X100567343Y-63707106D01*
X100499999Y-63639763D01*
X100466328Y-63538748D01*
X100466328Y-63471404D01*
X100500000Y-63370389D01*
X100601015Y-63202030D01*
X100769374Y-63033671D01*
X100937732Y-62932656D01*
X101038748Y-62898984D01*
X101106091Y-62898984D01*
X101207106Y-62932656D01*
X101510152Y-63707106D02*
X101038748Y-64178511D01*
X101442809Y-63774450D02*
X101510152Y-63774450D01*
X101611167Y-63808122D01*
X101712183Y-63909137D01*
X101745854Y-64010152D01*
X101712183Y-64111167D01*
X101341793Y-64481557D01*
D10*
%TO.C,J3*%
X106968571Y-72266428D02*
X106968571Y-73123571D01*
X106968571Y-72695000D02*
X105468571Y-72695000D01*
X105682857Y-72837857D01*
X105825714Y-72980714D01*
X105897142Y-73123571D01*
%TO.C,J7*%
X132668571Y-72667857D02*
X132668571Y-73382142D01*
X133382857Y-73453571D01*
X133311428Y-73382142D01*
X133240000Y-73239285D01*
X133240000Y-72882142D01*
X133311428Y-72739285D01*
X133382857Y-72667857D01*
X133525714Y-72596428D01*
X133882857Y-72596428D01*
X134025714Y-72667857D01*
X134097142Y-72739285D01*
X134168571Y-72882142D01*
X134168571Y-73239285D01*
X134097142Y-73382142D01*
X134025714Y-73453571D01*
%TO.C,J5*%
X105488571Y-90915000D02*
X105488571Y-89986428D01*
X106060000Y-90486428D01*
X106060000Y-90272142D01*
X106131428Y-90129285D01*
X106202857Y-90057857D01*
X106345714Y-89986428D01*
X106702857Y-89986428D01*
X106845714Y-90057857D01*
X106917142Y-90129285D01*
X106988571Y-90272142D01*
X106988571Y-90700714D01*
X106917142Y-90843571D01*
X106845714Y-90915000D01*
D11*
%TO.C,U1*%
X122038095Y-51667380D02*
X122704761Y-51667380D01*
X122276190Y-52667380D01*
X123514285Y-52000714D02*
X123514285Y-52667380D01*
X123276190Y-51619761D02*
X123038095Y-52334047D01*
X123657142Y-52334047D01*
X124038095Y-52667380D02*
X124038095Y-51667380D01*
X124038095Y-52143571D02*
X124609523Y-52143571D01*
X124609523Y-52667380D02*
X124609523Y-51667380D01*
X125657142Y-52572142D02*
X125609523Y-52619761D01*
X125466666Y-52667380D01*
X125371428Y-52667380D01*
X125228571Y-52619761D01*
X125133333Y-52524523D01*
X125085714Y-52429285D01*
X125038095Y-52238809D01*
X125038095Y-52095952D01*
X125085714Y-51905476D01*
X125133333Y-51810238D01*
X125228571Y-51715000D01*
X125371428Y-51667380D01*
X125466666Y-51667380D01*
X125609523Y-51715000D01*
X125657142Y-51762619D01*
X126561904Y-51667380D02*
X126085714Y-51667380D01*
X126038095Y-52143571D01*
X126085714Y-52095952D01*
X126180952Y-52048333D01*
X126419047Y-52048333D01*
X126514285Y-52095952D01*
X126561904Y-52143571D01*
X126609523Y-52238809D01*
X126609523Y-52476904D01*
X126561904Y-52572142D01*
X126514285Y-52619761D01*
X126419047Y-52667380D01*
X126180952Y-52667380D01*
X126085714Y-52619761D01*
X126038095Y-52572142D01*
X127085714Y-52667380D02*
X127276190Y-52667380D01*
X127371428Y-52619761D01*
X127419047Y-52572142D01*
X127514285Y-52429285D01*
X127561904Y-52238809D01*
X127561904Y-51857857D01*
X127514285Y-51762619D01*
X127466666Y-51715000D01*
X127371428Y-51667380D01*
X127180952Y-51667380D01*
X127085714Y-51715000D01*
X127038095Y-51762619D01*
X126990476Y-51857857D01*
X126990476Y-52095952D01*
X127038095Y-52191190D01*
X127085714Y-52238809D01*
X127180952Y-52286428D01*
X127371428Y-52286428D01*
X127466666Y-52238809D01*
X127514285Y-52191190D01*
X127561904Y-52095952D01*
X128466666Y-51667380D02*
X127990476Y-51667380D01*
X127942857Y-52143571D01*
X127990476Y-52095952D01*
X128085714Y-52048333D01*
X128323809Y-52048333D01*
X128419047Y-52095952D01*
X128466666Y-52143571D01*
X128514285Y-52238809D01*
X128514285Y-52476904D01*
X128466666Y-52572142D01*
X128419047Y-52619761D01*
X128323809Y-52667380D01*
X128085714Y-52667380D01*
X127990476Y-52619761D01*
X127942857Y-52572142D01*
%TO.C,U2*%
X117571428Y-83793380D02*
X117238095Y-83317190D01*
X117000000Y-83793380D02*
X117000000Y-82793380D01*
X117380952Y-82793380D01*
X117476190Y-82841000D01*
X117523809Y-82888619D01*
X117571428Y-82983857D01*
X117571428Y-83126714D01*
X117523809Y-83221952D01*
X117476190Y-83269571D01*
X117380952Y-83317190D01*
X117000000Y-83317190D01*
X118000000Y-83793380D02*
X118000000Y-82793380D01*
X118380952Y-82793380D01*
X118476190Y-82841000D01*
X118523809Y-82888619D01*
X118571428Y-82983857D01*
X118571428Y-83126714D01*
X118523809Y-83221952D01*
X118476190Y-83269571D01*
X118380952Y-83317190D01*
X118000000Y-83317190D01*
X119000000Y-83793380D02*
X119000000Y-83126714D01*
X119000000Y-82793380D02*
X118952380Y-82841000D01*
X119000000Y-82888619D01*
X119047619Y-82841000D01*
X119000000Y-82793380D01*
X119000000Y-82888619D01*
X120238095Y-83793380D02*
X120238095Y-82793380D01*
X120619047Y-82793380D01*
X120714285Y-82841000D01*
X120761904Y-82888619D01*
X120809523Y-82983857D01*
X120809523Y-83126714D01*
X120761904Y-83221952D01*
X120714285Y-83269571D01*
X120619047Y-83317190D01*
X120238095Y-83317190D01*
X121238095Y-83793380D02*
X121238095Y-83126714D01*
X121238095Y-82793380D02*
X121190476Y-82841000D01*
X121238095Y-82888619D01*
X121285714Y-82841000D01*
X121238095Y-82793380D01*
X121238095Y-82888619D01*
X122142857Y-83745761D02*
X122047619Y-83793380D01*
X121857142Y-83793380D01*
X121761904Y-83745761D01*
X121714285Y-83698142D01*
X121666666Y-83602904D01*
X121666666Y-83317190D01*
X121714285Y-83221952D01*
X121761904Y-83174333D01*
X121857142Y-83126714D01*
X122047619Y-83126714D01*
X122142857Y-83174333D01*
X122714285Y-83793380D02*
X122619047Y-83745761D01*
X122571428Y-83698142D01*
X122523809Y-83602904D01*
X122523809Y-83317190D01*
X122571428Y-83221952D01*
X122619047Y-83174333D01*
X122714285Y-83126714D01*
X122857142Y-83126714D01*
X122952380Y-83174333D01*
X123000000Y-83221952D01*
X123047619Y-83317190D01*
X123047619Y-83602904D01*
X123000000Y-83698142D01*
X122952380Y-83745761D01*
X122857142Y-83793380D01*
X122714285Y-83793380D01*
D10*
%TO.C,J8*%
X132668571Y-81569285D02*
X132668571Y-81855000D01*
X132740000Y-81997857D01*
X132811428Y-82069285D01*
X133025714Y-82212142D01*
X133311428Y-82283571D01*
X133882857Y-82283571D01*
X134025714Y-82212142D01*
X134097142Y-82140714D01*
X134168571Y-81997857D01*
X134168571Y-81712142D01*
X134097142Y-81569285D01*
X134025714Y-81497857D01*
X133882857Y-81426428D01*
X133525714Y-81426428D01*
X133382857Y-81497857D01*
X133311428Y-81569285D01*
X133240000Y-81712142D01*
X133240000Y-81997857D01*
X133311428Y-82140714D01*
X133382857Y-82212142D01*
X133525714Y-82283571D01*
%TO.C,J2*%
X101214285Y-53928571D02*
X100500000Y-53928571D01*
X100428571Y-54642857D01*
X100500000Y-54571428D01*
X100642857Y-54500000D01*
X101000000Y-54500000D01*
X101142857Y-54571428D01*
X101214285Y-54642857D01*
X101285714Y-54785714D01*
X101285714Y-55142857D01*
X101214285Y-55285714D01*
X101142857Y-55357142D01*
X101000000Y-55428571D01*
X100642857Y-55428571D01*
X100500000Y-55357142D01*
X100428571Y-55285714D01*
X101714285Y-53928571D02*
X102214285Y-55428571D01*
X102714285Y-53928571D01*
%TO.C,J4*%
X105611428Y-81953571D02*
X105540000Y-81882142D01*
X105468571Y-81739285D01*
X105468571Y-81382142D01*
X105540000Y-81239285D01*
X105611428Y-81167857D01*
X105754285Y-81096428D01*
X105897142Y-81096428D01*
X106111428Y-81167857D01*
X106968571Y-82025000D01*
X106968571Y-81096428D01*
%TO.C,J1*%
X136590000Y-64500000D02*
X136518571Y-64642857D01*
X136518571Y-64857142D01*
X136590000Y-65071428D01*
X136732857Y-65214285D01*
X136875714Y-65285714D01*
X137161428Y-65357142D01*
X137375714Y-65357142D01*
X137661428Y-65285714D01*
X137804285Y-65214285D01*
X137947142Y-65071428D01*
X138018571Y-64857142D01*
X138018571Y-64714285D01*
X137947142Y-64500000D01*
X137875714Y-64428571D01*
X137375714Y-64428571D01*
X137375714Y-64714285D01*
X138018571Y-63785714D02*
X136518571Y-63785714D01*
X138018571Y-62928571D01*
X136518571Y-62928571D01*
X138018571Y-62214285D02*
X136518571Y-62214285D01*
X136518571Y-61857142D01*
X136590000Y-61642857D01*
X136732857Y-61500000D01*
X136875714Y-61428571D01*
X137161428Y-61357142D01*
X137375714Y-61357142D01*
X137661428Y-61428571D01*
X137804285Y-61500000D01*
X137947142Y-61642857D01*
X138018571Y-61857142D01*
X138018571Y-62214285D01*
X137447142Y-59571428D02*
X137447142Y-58428571D01*
X138018571Y-59000000D02*
X136875714Y-59000000D01*
X136518571Y-57000000D02*
X136518571Y-57714285D01*
X137232857Y-57785714D01*
X137161428Y-57714285D01*
X137090000Y-57571428D01*
X137090000Y-57214285D01*
X137161428Y-57071428D01*
X137232857Y-57000000D01*
X137375714Y-56928571D01*
X137732857Y-56928571D01*
X137875714Y-57000000D01*
X137947142Y-57071428D01*
X138018571Y-57214285D01*
X138018571Y-57571428D01*
X137947142Y-57714285D01*
X137875714Y-57785714D01*
X136518571Y-56500000D02*
X138018571Y-56000000D01*
X136518571Y-55500000D01*
%TO.C,J6*%
X106178571Y-99714285D02*
X107178571Y-99714285D01*
X105607142Y-100071428D02*
X106678571Y-100428571D01*
X106678571Y-99500000D01*
%TO.C,J10*%
X133331428Y-99757857D02*
X133260000Y-99900714D01*
X133188571Y-99972142D01*
X133045714Y-100043571D01*
X132974285Y-100043571D01*
X132831428Y-99972142D01*
X132760000Y-99900714D01*
X132688571Y-99757857D01*
X132688571Y-99472142D01*
X132760000Y-99329285D01*
X132831428Y-99257857D01*
X132974285Y-99186428D01*
X133045714Y-99186428D01*
X133188571Y-99257857D01*
X133260000Y-99329285D01*
X133331428Y-99472142D01*
X133331428Y-99757857D01*
X133402857Y-99900714D01*
X133474285Y-99972142D01*
X133617142Y-100043571D01*
X133902857Y-100043571D01*
X134045714Y-99972142D01*
X134117142Y-99900714D01*
X134188571Y-99757857D01*
X134188571Y-99472142D01*
X134117142Y-99329285D01*
X134045714Y-99257857D01*
X133902857Y-99186428D01*
X133617142Y-99186428D01*
X133474285Y-99257857D01*
X133402857Y-99329285D01*
X133331428Y-99472142D01*
%TO.C,J9*%
X132648571Y-91225000D02*
X132648571Y-90225000D01*
X134148571Y-90867857D01*
D12*
%TO.C,C1*%
X105424909Y-62487437D02*
X101012563Y-58075091D01*
X103487437Y-64424909D02*
X103802099Y-64110247D01*
X103487437Y-64424909D02*
X99075091Y-60012563D01*
X99075091Y-60012563D02*
X99389753Y-59697901D01*
X100697901Y-58389753D02*
X101012563Y-58075091D01*
X105110247Y-62802099D02*
X105424909Y-62487437D01*
%TO.C,J3*%
X98535000Y-69510000D02*
X97935000Y-69510000D01*
X98965000Y-77060000D02*
X102965000Y-77060000D01*
X97935000Y-71110000D02*
X98535000Y-71110000D01*
X102425000Y-75140000D02*
X102425000Y-70560000D01*
X98535000Y-72050000D02*
X97935000Y-72050000D01*
X102955000Y-75390000D02*
X102425000Y-75140000D01*
X97935000Y-73650000D02*
X98535000Y-73650000D01*
X102955000Y-70310000D02*
X103955000Y-70310000D01*
X102425000Y-70560000D02*
X102955000Y-70310000D01*
X97935000Y-68930000D02*
X97935000Y-76770000D01*
X98535000Y-76190000D02*
X98535000Y-74590000D01*
X97935000Y-76770000D02*
X103955000Y-76770000D01*
X102955000Y-75390000D02*
X102955000Y-70310000D01*
X97935000Y-76190000D02*
X98535000Y-76190000D01*
X98535000Y-73650000D02*
X98535000Y-72050000D01*
X98535000Y-71110000D02*
X98535000Y-69510000D01*
X98535000Y-74590000D02*
X97935000Y-74590000D01*
X103955000Y-75390000D02*
X102955000Y-75390000D01*
X103955000Y-70560000D02*
X102955000Y-70560000D01*
X103955000Y-75140000D02*
X102955000Y-75140000D01*
X103955000Y-68930000D02*
X97935000Y-68930000D01*
X103955000Y-76770000D02*
X103955000Y-68930000D01*
%TO.C,J7*%
X141455000Y-74765000D02*
X141455000Y-76365000D01*
X137565000Y-70735000D02*
X137565000Y-75315000D01*
X141455000Y-71285000D02*
X142055000Y-71285000D01*
X136035000Y-70485000D02*
X137035000Y-70485000D01*
X141025000Y-68815000D02*
X137025000Y-68815000D01*
X142055000Y-74765000D02*
X141455000Y-74765000D01*
X136035000Y-70735000D02*
X137035000Y-70735000D01*
X137565000Y-75315000D02*
X137035000Y-75565000D01*
X141455000Y-72225000D02*
X141455000Y-73825000D01*
X137035000Y-70485000D02*
X137565000Y-70735000D01*
X136035000Y-75315000D02*
X137035000Y-75315000D01*
X141455000Y-69685000D02*
X141455000Y-71285000D01*
X137035000Y-75565000D02*
X136035000Y-75565000D01*
X136035000Y-69105000D02*
X136035000Y-76945000D01*
X142055000Y-72225000D02*
X141455000Y-72225000D01*
X137035000Y-70485000D02*
X137035000Y-75565000D01*
X141455000Y-73825000D02*
X142055000Y-73825000D01*
X141455000Y-76365000D02*
X142055000Y-76365000D01*
X136035000Y-76945000D02*
X142055000Y-76945000D01*
X142055000Y-69685000D02*
X141455000Y-69685000D01*
X142055000Y-69105000D02*
X136035000Y-69105000D01*
X142055000Y-76945000D02*
X142055000Y-69105000D01*
%TO.C,J5*%
X102445000Y-92860000D02*
X102445000Y-88280000D01*
X97955000Y-91370000D02*
X98555000Y-91370000D01*
X98555000Y-93910000D02*
X98555000Y-92310000D01*
X98555000Y-92310000D02*
X97955000Y-92310000D01*
X97955000Y-93910000D02*
X98555000Y-93910000D01*
X102975000Y-93110000D02*
X102975000Y-88030000D01*
X102445000Y-88280000D02*
X102975000Y-88030000D01*
X98555000Y-88830000D02*
X98555000Y-87230000D01*
X98555000Y-89770000D02*
X97955000Y-89770000D01*
X103975000Y-86650000D02*
X97955000Y-86650000D01*
X103975000Y-93110000D02*
X102975000Y-93110000D01*
X103975000Y-88280000D02*
X102975000Y-88280000D01*
X102975000Y-93110000D02*
X102445000Y-92860000D01*
X98985000Y-94780000D02*
X102985000Y-94780000D01*
X97955000Y-88830000D02*
X98555000Y-88830000D01*
X102975000Y-88030000D02*
X103975000Y-88030000D01*
X98555000Y-91370000D02*
X98555000Y-89770000D01*
X98555000Y-87230000D02*
X97955000Y-87230000D01*
X97955000Y-86650000D02*
X97955000Y-94490000D01*
X103975000Y-94490000D02*
X103975000Y-86650000D01*
X103975000Y-92860000D02*
X102975000Y-92860000D01*
X97955000Y-94490000D02*
X103975000Y-94490000D01*
%TO.C,U1*%
X115095000Y-54465000D02*
X135535000Y-54465000D01*
X115095000Y-49965000D02*
X115095000Y-51215000D01*
X135535000Y-54465000D02*
X135535000Y-49965000D01*
X115095000Y-53215000D02*
X115095000Y-54465000D01*
X135535000Y-49965000D02*
X115095000Y-49965000D01*
X115095000Y-53215000D02*
G75*
G03*
X115095000Y-51215000I0J1000000D01*
G01*
%TO.C,U2*%
X109500000Y-90800000D02*
X109500000Y-90400000D01*
X123700000Y-60000000D02*
X130500000Y-60000000D01*
X109500000Y-93300000D02*
X109500000Y-92900000D01*
X130500000Y-73000000D02*
X130500000Y-72600000D01*
X130500000Y-108333000D02*
X127493000Y-108333000D01*
X130500000Y-93300000D02*
X130500000Y-92900000D01*
X109500000Y-83200000D02*
X109500000Y-82800000D01*
X130500000Y-90800000D02*
X130500000Y-90400000D01*
X109500000Y-106000000D02*
X109500000Y-105600000D01*
X130500000Y-95900000D02*
X130500000Y-95500000D01*
X130500000Y-62800000D02*
X130500000Y-62400000D01*
X130500000Y-78100000D02*
X130500000Y-77700000D01*
X109500000Y-88200000D02*
X109500000Y-87800000D01*
X130500000Y-111000000D02*
X109500000Y-111000000D01*
X130500000Y-103500000D02*
X130500000Y-103100000D01*
X109500000Y-80600000D02*
X109500000Y-80200000D01*
X130500000Y-70400000D02*
X130500000Y-70000000D01*
X130500000Y-83200000D02*
X130500000Y-82800000D01*
X130500000Y-108600000D02*
X130500000Y-108200000D01*
X130500000Y-65400000D02*
X130500000Y-65000000D01*
X109500000Y-78100000D02*
X109500000Y-77700000D01*
X130500000Y-75500000D02*
X130500000Y-75100000D01*
X109500000Y-62800000D02*
X109500000Y-62400000D01*
X109500000Y-70400000D02*
X109500000Y-70000000D01*
X109500000Y-60000000D02*
X116300000Y-60000000D01*
X130500000Y-88200000D02*
X130500000Y-87800000D01*
X109500000Y-108600000D02*
X109500000Y-108200000D01*
X109500000Y-73000000D02*
X109500000Y-72600000D01*
X118900000Y-60000000D02*
X118500000Y-60000000D01*
X121500000Y-60000000D02*
X121100000Y-60000000D01*
X109500000Y-65400000D02*
X109500000Y-65000000D01*
X109500000Y-100900000D02*
X109500000Y-100500000D01*
X109500000Y-75500000D02*
X109500000Y-75100000D01*
X130500000Y-111000000D02*
X130500000Y-110700000D01*
X130500000Y-106000000D02*
X130500000Y-105600000D01*
X109500000Y-85700000D02*
X109500000Y-85300000D01*
X109500000Y-111000000D02*
X109500000Y-110700000D01*
X127493000Y-108333000D02*
X127493000Y-111000000D01*
X109500000Y-103500000D02*
X109500000Y-103100000D01*
X109500000Y-98400000D02*
X109500000Y-98000000D01*
X130500000Y-100900000D02*
X130500000Y-100500000D01*
X130500000Y-67900000D02*
X130500000Y-67500000D01*
X109500000Y-95900000D02*
X109500000Y-95500000D01*
X130500000Y-80600000D02*
X130500000Y-80200000D01*
X130500000Y-98400000D02*
X130500000Y-98000000D01*
X109500000Y-67900000D02*
X109500000Y-67500000D01*
X130500000Y-85700000D02*
X130500000Y-85300000D01*
%TO.C,J8*%
X136035000Y-79315000D02*
X137035000Y-79315000D01*
X142055000Y-85775000D02*
X142055000Y-77935000D01*
X136035000Y-79565000D02*
X137035000Y-79565000D01*
X141455000Y-85195000D02*
X142055000Y-85195000D01*
X141455000Y-80115000D02*
X142055000Y-80115000D01*
X137035000Y-84395000D02*
X136035000Y-84395000D01*
X142055000Y-77935000D02*
X136035000Y-77935000D01*
X141455000Y-81055000D02*
X141455000Y-82655000D01*
X142055000Y-81055000D02*
X141455000Y-81055000D01*
X137035000Y-79315000D02*
X137565000Y-79565000D01*
X137035000Y-79315000D02*
X137035000Y-84395000D01*
X136035000Y-84145000D02*
X137035000Y-84145000D01*
X141455000Y-83595000D02*
X141455000Y-85195000D01*
X142055000Y-78515000D02*
X141455000Y-78515000D01*
X136035000Y-85775000D02*
X142055000Y-85775000D01*
X137565000Y-79565000D02*
X137565000Y-84145000D01*
X141025000Y-77645000D02*
X137025000Y-77645000D01*
X136035000Y-77935000D02*
X136035000Y-85775000D01*
X142055000Y-83595000D02*
X141455000Y-83595000D01*
X141455000Y-82655000D02*
X142055000Y-82655000D01*
X141455000Y-78515000D02*
X141455000Y-80115000D01*
X137565000Y-84145000D02*
X137035000Y-84395000D01*
%TO.C,J2*%
X114657500Y-56950000D02*
X114657500Y-58000000D01*
X105257500Y-43100000D02*
X114457500Y-43100000D01*
X107957500Y-57800000D02*
X105257500Y-57800000D01*
X113607500Y-58000000D02*
X114657500Y-58000000D01*
X114457500Y-57800000D02*
X111857500Y-57800000D01*
X105257500Y-51900000D02*
X105257500Y-43100000D01*
X105257500Y-57800000D02*
X105257500Y-55900000D01*
X114457500Y-43100000D02*
X114457500Y-57800000D01*
%TO.C,J4*%
X97935000Y-85020000D02*
X98535000Y-85020000D01*
X98535000Y-78340000D02*
X97935000Y-78340000D01*
X103955000Y-84220000D02*
X102955000Y-84220000D01*
X98535000Y-83420000D02*
X97935000Y-83420000D01*
X103955000Y-79390000D02*
X102955000Y-79390000D01*
X102955000Y-84220000D02*
X102955000Y-79140000D01*
X98535000Y-80880000D02*
X97935000Y-80880000D01*
X97935000Y-82480000D02*
X98535000Y-82480000D01*
X102955000Y-79140000D02*
X103955000Y-79140000D01*
X98535000Y-82480000D02*
X98535000Y-80880000D01*
X98965000Y-85890000D02*
X102965000Y-85890000D01*
X97935000Y-85600000D02*
X103955000Y-85600000D01*
X97935000Y-77760000D02*
X97935000Y-85600000D01*
X97935000Y-79940000D02*
X98535000Y-79940000D01*
X103955000Y-83970000D02*
X102955000Y-83970000D01*
X103955000Y-77760000D02*
X97935000Y-77760000D01*
X98535000Y-79940000D02*
X98535000Y-78340000D01*
X103955000Y-85600000D02*
X103955000Y-77760000D01*
X102955000Y-84220000D02*
X102425000Y-83970000D01*
X102425000Y-79390000D02*
X102955000Y-79140000D01*
X102425000Y-83970000D02*
X102425000Y-79390000D01*
X98535000Y-85020000D02*
X98535000Y-83420000D01*
%TO.C,J6*%
X103975000Y-102000000D02*
X102975000Y-102000000D01*
X97955000Y-95540000D02*
X97955000Y-103380000D01*
X98555000Y-102800000D02*
X98555000Y-101200000D01*
X102975000Y-102000000D02*
X102975000Y-96920000D01*
X98985000Y-103670000D02*
X102985000Y-103670000D01*
X103975000Y-97170000D02*
X102975000Y-97170000D01*
X103975000Y-95540000D02*
X97955000Y-95540000D01*
X97955000Y-102800000D02*
X98555000Y-102800000D01*
X102445000Y-97170000D02*
X102975000Y-96920000D01*
X102445000Y-101750000D02*
X102445000Y-97170000D01*
X97955000Y-100260000D02*
X98555000Y-100260000D01*
X97955000Y-103380000D02*
X103975000Y-103380000D01*
X98555000Y-98660000D02*
X97955000Y-98660000D01*
X102975000Y-102000000D02*
X102445000Y-101750000D01*
X98555000Y-100260000D02*
X98555000Y-98660000D01*
X98555000Y-97720000D02*
X98555000Y-96120000D01*
X103975000Y-101750000D02*
X102975000Y-101750000D01*
X102975000Y-96920000D02*
X103975000Y-96920000D01*
X97955000Y-97720000D02*
X98555000Y-97720000D01*
X98555000Y-96120000D02*
X97955000Y-96120000D01*
X103975000Y-103380000D02*
X103975000Y-95540000D01*
X98555000Y-101200000D02*
X97955000Y-101200000D01*
%TO.C,J10*%
X142075000Y-98815000D02*
X141475000Y-98815000D01*
X141475000Y-100415000D02*
X142075000Y-100415000D01*
X136055000Y-103535000D02*
X142075000Y-103535000D01*
X141475000Y-101355000D02*
X141475000Y-102955000D01*
X136055000Y-95695000D02*
X136055000Y-103535000D01*
X141475000Y-97875000D02*
X142075000Y-97875000D01*
X141475000Y-96275000D02*
X141475000Y-97875000D01*
X136055000Y-97325000D02*
X137055000Y-97325000D01*
X141475000Y-102955000D02*
X142075000Y-102955000D01*
X137055000Y-102155000D02*
X136055000Y-102155000D01*
X137055000Y-97075000D02*
X137055000Y-102155000D01*
X136055000Y-97075000D02*
X137055000Y-97075000D01*
X142075000Y-101355000D02*
X141475000Y-101355000D01*
X142075000Y-96275000D02*
X141475000Y-96275000D01*
X141045000Y-95405000D02*
X137045000Y-95405000D01*
X137585000Y-97325000D02*
X137585000Y-101905000D01*
X137585000Y-101905000D02*
X137055000Y-102155000D01*
X136055000Y-101905000D02*
X137055000Y-101905000D01*
X142075000Y-103535000D02*
X142075000Y-95695000D01*
X141475000Y-98815000D02*
X141475000Y-100415000D01*
X137055000Y-97075000D02*
X137585000Y-97325000D01*
X142075000Y-95695000D02*
X136055000Y-95695000D01*
%TO.C,J9*%
X141435000Y-88985000D02*
X142035000Y-88985000D01*
X141435000Y-92465000D02*
X141435000Y-94065000D01*
X137545000Y-93015000D02*
X137015000Y-93265000D01*
X141435000Y-94065000D02*
X142035000Y-94065000D01*
X137015000Y-93265000D02*
X136015000Y-93265000D01*
X142035000Y-94645000D02*
X142035000Y-86805000D01*
X142035000Y-86805000D02*
X136015000Y-86805000D01*
X142035000Y-89925000D02*
X141435000Y-89925000D01*
X136015000Y-88185000D02*
X137015000Y-88185000D01*
X141435000Y-89925000D02*
X141435000Y-91525000D01*
X136015000Y-94645000D02*
X142035000Y-94645000D01*
X142035000Y-92465000D02*
X141435000Y-92465000D01*
X141435000Y-91525000D02*
X142035000Y-91525000D01*
X136015000Y-86805000D02*
X136015000Y-94645000D01*
X136015000Y-88435000D02*
X137015000Y-88435000D01*
X137015000Y-88185000D02*
X137015000Y-93265000D01*
X141435000Y-87385000D02*
X141435000Y-88985000D01*
X137545000Y-88435000D02*
X137545000Y-93015000D01*
X142035000Y-87385000D02*
X141435000Y-87385000D01*
X137015000Y-88185000D02*
X137545000Y-88435000D01*
X141005000Y-86515000D02*
X137005000Y-86515000D01*
X136015000Y-93015000D02*
X137015000Y-93015000D01*
D13*
%TO.C,REF\u002A\u002A*%
X101425000Y-56875000D02*
G75*
G03*
X101425000Y-56875000I-175000J0D01*
G01*
D11*
X105175000Y-56875000D02*
G75*
G03*
X105175000Y-56875000I-925000J0D01*
G01*
X99175000Y-56875000D02*
G75*
G03*
X99175000Y-56875000I-925000J0D01*
G01*
X101925000Y-56125000D02*
G75*
G03*
X102000000Y-57550000I-675000J-750000D01*
G01*
X101250000Y-56875000D02*
X103250000Y-56875000D01*
X99250000Y-56875000D02*
X100150000Y-56875000D01*
%TD*%
M02*
