%TF.GenerationSoftware,KiCad,Pcbnew,(6.0.7)*%
%TF.CreationDate,2022-09-24T21:41:20+01:00*%
%TF.ProjectId,mini_jellies,6d696e69-5f6a-4656-9c6c-6965732e6b69,rev?*%
%TF.SameCoordinates,Original*%
%TF.FileFunction,Legend,Bot*%
%TF.FilePolarity,Positive*%
%FSLAX46Y46*%
G04 Gerber Fmt 4.6, Leading zero omitted, Abs format (unit mm)*
G04 Created by KiCad (PCBNEW (6.0.7)) date 2022-09-24 21:41:20*
%MOMM*%
%LPD*%
G01*
G04 APERTURE LIST*
%ADD10C,0.150000*%
%ADD11C,0.300000*%
G04 APERTURE END LIST*
D10*
X104761904Y-75000000D02*
X104857142Y-74952380D01*
X105000000Y-74952380D01*
X105142857Y-75000000D01*
X105238095Y-75095238D01*
X105285714Y-75190476D01*
X105333333Y-75380952D01*
X105333333Y-75523809D01*
X105285714Y-75714285D01*
X105238095Y-75809523D01*
X105142857Y-75904761D01*
X105000000Y-75952380D01*
X104904761Y-75952380D01*
X104761904Y-75904761D01*
X104714285Y-75857142D01*
X104714285Y-75523809D01*
X104904761Y-75523809D01*
X104285714Y-75952380D02*
X104285714Y-74952380D01*
X103714285Y-75952380D01*
X103714285Y-74952380D01*
X103238095Y-75952380D02*
X103238095Y-74952380D01*
X103000000Y-74952380D01*
X102857142Y-75000000D01*
X102761904Y-75095238D01*
X102714285Y-75190476D01*
X102666666Y-75380952D01*
X102666666Y-75523809D01*
X102714285Y-75714285D01*
X102761904Y-75809523D01*
X102857142Y-75904761D01*
X103000000Y-75952380D01*
X103238095Y-75952380D01*
X105750000Y-73452380D02*
X105750000Y-72452380D01*
X105511904Y-72452380D01*
X105369047Y-72500000D01*
X105273809Y-72595238D01*
X105226190Y-72690476D01*
X105178571Y-72880952D01*
X105178571Y-73023809D01*
X105226190Y-73214285D01*
X105273809Y-73309523D01*
X105369047Y-73404761D01*
X105511904Y-73452380D01*
X105750000Y-73452380D01*
X104797619Y-73166666D02*
X104321428Y-73166666D01*
X104892857Y-73452380D02*
X104559523Y-72452380D01*
X104226190Y-73452380D01*
X104035714Y-72452380D02*
X103464285Y-72452380D01*
X103750000Y-73452380D02*
X103750000Y-72452380D01*
X103178571Y-73166666D02*
X102702380Y-73166666D01*
X103273809Y-73452380D02*
X102940476Y-72452380D01*
X102607142Y-73452380D01*
X105285714Y-70571428D02*
X104523809Y-70571428D01*
X104904761Y-70952380D02*
X104904761Y-70190476D01*
X103571428Y-69952380D02*
X104047619Y-69952380D01*
X104095238Y-70428571D01*
X104047619Y-70380952D01*
X103952380Y-70333333D01*
X103714285Y-70333333D01*
X103619047Y-70380952D01*
X103571428Y-70428571D01*
X103523809Y-70523809D01*
X103523809Y-70761904D01*
X103571428Y-70857142D01*
X103619047Y-70904761D01*
X103714285Y-70952380D01*
X103952380Y-70952380D01*
X104047619Y-70904761D01*
X104095238Y-70857142D01*
X103238095Y-69952380D02*
X102904761Y-70952380D01*
X102571428Y-69952380D01*
D11*
X117434761Y-72547619D02*
X115434761Y-72547619D01*
X117434761Y-73690476D01*
X115434761Y-73690476D01*
X117339523Y-75404761D02*
X117434761Y-75214285D01*
X117434761Y-74833333D01*
X117339523Y-74642857D01*
X117149047Y-74547619D01*
X116387142Y-74547619D01*
X116196666Y-74642857D01*
X116101428Y-74833333D01*
X116101428Y-75214285D01*
X116196666Y-75404761D01*
X116387142Y-75500000D01*
X116577619Y-75500000D01*
X116768095Y-74547619D01*
X117434761Y-76642857D02*
X117339523Y-76452380D01*
X117244285Y-76357142D01*
X117053809Y-76261904D01*
X116482380Y-76261904D01*
X116291904Y-76357142D01*
X116196666Y-76452380D01*
X116101428Y-76642857D01*
X116101428Y-76928571D01*
X116196666Y-77119047D01*
X116291904Y-77214285D01*
X116482380Y-77309523D01*
X117053809Y-77309523D01*
X117244285Y-77214285D01*
X117339523Y-77119047D01*
X117434761Y-76928571D01*
X117434761Y-76642857D01*
X117434761Y-78166666D02*
X115434761Y-78166666D01*
X115434761Y-78928571D01*
X115530000Y-79119047D01*
X115625238Y-79214285D01*
X115815714Y-79309523D01*
X116101428Y-79309523D01*
X116291904Y-79214285D01*
X116387142Y-79119047D01*
X116482380Y-78928571D01*
X116482380Y-78166666D01*
X117434761Y-80166666D02*
X115434761Y-80166666D01*
X115434761Y-81500000D02*
X115434761Y-81880952D01*
X115530000Y-82071428D01*
X115720476Y-82261904D01*
X116101428Y-82357142D01*
X116768095Y-82357142D01*
X117149047Y-82261904D01*
X117339523Y-82071428D01*
X117434761Y-81880952D01*
X117434761Y-81500000D01*
X117339523Y-81309523D01*
X117149047Y-81119047D01*
X116768095Y-81023809D01*
X116101428Y-81023809D01*
X115720476Y-81119047D01*
X115530000Y-81309523D01*
X115434761Y-81500000D01*
X117434761Y-84738095D02*
X115434761Y-84738095D01*
X115434761Y-85214285D01*
X115530000Y-85500000D01*
X115720476Y-85690476D01*
X115910952Y-85785714D01*
X116291904Y-85880952D01*
X116577619Y-85880952D01*
X116958571Y-85785714D01*
X117149047Y-85690476D01*
X117339523Y-85500000D01*
X117434761Y-85214285D01*
X117434761Y-84738095D01*
X117434761Y-86738095D02*
X116101428Y-86738095D01*
X116482380Y-86738095D02*
X116291904Y-86833333D01*
X116196666Y-86928571D01*
X116101428Y-87119047D01*
X116101428Y-87309523D01*
X117434761Y-87976190D02*
X116101428Y-87976190D01*
X115434761Y-87976190D02*
X115530000Y-87880952D01*
X115625238Y-87976190D01*
X115530000Y-88071428D01*
X115434761Y-87976190D01*
X115625238Y-87976190D01*
X116101428Y-88738095D02*
X117434761Y-89214285D01*
X116101428Y-89690476D01*
X117339523Y-91214285D02*
X117434761Y-91023809D01*
X117434761Y-90642857D01*
X117339523Y-90452380D01*
X117149047Y-90357142D01*
X116387142Y-90357142D01*
X116196666Y-90452380D01*
X116101428Y-90642857D01*
X116101428Y-91023809D01*
X116196666Y-91214285D01*
X116387142Y-91309523D01*
X116577619Y-91309523D01*
X116768095Y-90357142D01*
X117434761Y-92166666D02*
X116101428Y-92166666D01*
X116482380Y-92166666D02*
X116291904Y-92261904D01*
X116196666Y-92357142D01*
X116101428Y-92547619D01*
X116101428Y-92738095D01*
X120654761Y-73500000D02*
X118654761Y-73500000D01*
X118654761Y-73976190D01*
X118750000Y-74261904D01*
X118940476Y-74452380D01*
X119130952Y-74547619D01*
X119511904Y-74642857D01*
X119797619Y-74642857D01*
X120178571Y-74547619D01*
X120369047Y-74452380D01*
X120559523Y-74261904D01*
X120654761Y-73976190D01*
X120654761Y-73500000D01*
X120654761Y-76357142D02*
X119607142Y-76357142D01*
X119416666Y-76261904D01*
X119321428Y-76071428D01*
X119321428Y-75690476D01*
X119416666Y-75500000D01*
X120559523Y-76357142D02*
X120654761Y-76166666D01*
X120654761Y-75690476D01*
X120559523Y-75500000D01*
X120369047Y-75404761D01*
X120178571Y-75404761D01*
X119988095Y-75500000D01*
X119892857Y-75690476D01*
X119892857Y-76166666D01*
X119797619Y-76357142D01*
X119321428Y-77119047D02*
X120654761Y-77595238D01*
X119321428Y-78071428D01*
X120654761Y-78833333D02*
X119321428Y-78833333D01*
X118654761Y-78833333D02*
X118750000Y-78738095D01*
X118845238Y-78833333D01*
X118750000Y-78928571D01*
X118654761Y-78833333D01*
X118845238Y-78833333D01*
X120654761Y-80642857D02*
X118654761Y-80642857D01*
X120559523Y-80642857D02*
X120654761Y-80452380D01*
X120654761Y-80071428D01*
X120559523Y-79880952D01*
X120464285Y-79785714D01*
X120273809Y-79690476D01*
X119702380Y-79690476D01*
X119511904Y-79785714D01*
X119416666Y-79880952D01*
X119321428Y-80071428D01*
X119321428Y-80452380D01*
X119416666Y-80642857D01*
X118654761Y-82833333D02*
X118654761Y-83976190D01*
X120654761Y-83404761D02*
X118654761Y-83404761D01*
X119321428Y-85500000D02*
X120654761Y-85500000D01*
X119321428Y-84642857D02*
X120369047Y-84642857D01*
X120559523Y-84738095D01*
X120654761Y-84928571D01*
X120654761Y-85214285D01*
X120559523Y-85404761D01*
X120464285Y-85500000D01*
X120654761Y-86452380D02*
X119321428Y-86452380D01*
X119702380Y-86452380D02*
X119511904Y-86547619D01*
X119416666Y-86642857D01*
X119321428Y-86833333D01*
X119321428Y-87023809D01*
X119321428Y-87690476D02*
X120654761Y-87690476D01*
X119511904Y-87690476D02*
X119416666Y-87785714D01*
X119321428Y-87976190D01*
X119321428Y-88261904D01*
X119416666Y-88452380D01*
X119607142Y-88547619D01*
X120654761Y-88547619D01*
X120559523Y-90261904D02*
X120654761Y-90071428D01*
X120654761Y-89690476D01*
X120559523Y-89500000D01*
X120369047Y-89404761D01*
X119607142Y-89404761D01*
X119416666Y-89500000D01*
X119321428Y-89690476D01*
X119321428Y-90071428D01*
X119416666Y-90261904D01*
X119607142Y-90357142D01*
X119797619Y-90357142D01*
X119988095Y-89404761D01*
X120654761Y-91214285D02*
X119321428Y-91214285D01*
X119702380Y-91214285D02*
X119511904Y-91309523D01*
X119416666Y-91404761D01*
X119321428Y-91595238D01*
X119321428Y-91785714D01*
X123779523Y-70452380D02*
X123874761Y-70738095D01*
X123874761Y-71214285D01*
X123779523Y-71404761D01*
X123684285Y-71500000D01*
X123493809Y-71595238D01*
X123303333Y-71595238D01*
X123112857Y-71500000D01*
X123017619Y-71404761D01*
X122922380Y-71214285D01*
X122827142Y-70833333D01*
X122731904Y-70642857D01*
X122636666Y-70547619D01*
X122446190Y-70452380D01*
X122255714Y-70452380D01*
X122065238Y-70547619D01*
X121970000Y-70642857D01*
X121874761Y-70833333D01*
X121874761Y-71309523D01*
X121970000Y-71595238D01*
X123779523Y-73214285D02*
X123874761Y-73023809D01*
X123874761Y-72642857D01*
X123779523Y-72452380D01*
X123589047Y-72357142D01*
X122827142Y-72357142D01*
X122636666Y-72452380D01*
X122541428Y-72642857D01*
X122541428Y-73023809D01*
X122636666Y-73214285D01*
X122827142Y-73309523D01*
X123017619Y-73309523D01*
X123208095Y-72357142D01*
X122541428Y-74166666D02*
X124541428Y-74166666D01*
X122636666Y-74166666D02*
X122541428Y-74357142D01*
X122541428Y-74738095D01*
X122636666Y-74928571D01*
X122731904Y-75023809D01*
X122922380Y-75119047D01*
X123493809Y-75119047D01*
X123684285Y-75023809D01*
X123779523Y-74928571D01*
X123874761Y-74738095D01*
X123874761Y-74357142D01*
X123779523Y-74166666D01*
X122541428Y-75690476D02*
X122541428Y-76452380D01*
X121874761Y-75976190D02*
X123589047Y-75976190D01*
X123779523Y-76071428D01*
X123874761Y-76261904D01*
X123874761Y-76452380D01*
X123779523Y-77880952D02*
X123874761Y-77690476D01*
X123874761Y-77309523D01*
X123779523Y-77119047D01*
X123589047Y-77023809D01*
X122827142Y-77023809D01*
X122636666Y-77119047D01*
X122541428Y-77309523D01*
X122541428Y-77690476D01*
X122636666Y-77880952D01*
X122827142Y-77976190D01*
X123017619Y-77976190D01*
X123208095Y-77023809D01*
X123874761Y-78833333D02*
X122541428Y-78833333D01*
X122731904Y-78833333D02*
X122636666Y-78928571D01*
X122541428Y-79119047D01*
X122541428Y-79404761D01*
X122636666Y-79595238D01*
X122827142Y-79690476D01*
X123874761Y-79690476D01*
X122827142Y-79690476D02*
X122636666Y-79785714D01*
X122541428Y-79976190D01*
X122541428Y-80261904D01*
X122636666Y-80452380D01*
X122827142Y-80547619D01*
X123874761Y-80547619D01*
X123874761Y-81500000D02*
X121874761Y-81500000D01*
X122636666Y-81500000D02*
X122541428Y-81690476D01*
X122541428Y-82071428D01*
X122636666Y-82261904D01*
X122731904Y-82357142D01*
X122922380Y-82452380D01*
X123493809Y-82452380D01*
X123684285Y-82357142D01*
X123779523Y-82261904D01*
X123874761Y-82071428D01*
X123874761Y-81690476D01*
X123779523Y-81500000D01*
X123779523Y-84071428D02*
X123874761Y-83880952D01*
X123874761Y-83500000D01*
X123779523Y-83309523D01*
X123589047Y-83214285D01*
X122827142Y-83214285D01*
X122636666Y-83309523D01*
X122541428Y-83500000D01*
X122541428Y-83880952D01*
X122636666Y-84071428D01*
X122827142Y-84166666D01*
X123017619Y-84166666D01*
X123208095Y-83214285D01*
X123874761Y-85023809D02*
X122541428Y-85023809D01*
X122922380Y-85023809D02*
X122731904Y-85119047D01*
X122636666Y-85214285D01*
X122541428Y-85404761D01*
X122541428Y-85595238D01*
X122065238Y-87690476D02*
X121970000Y-87785714D01*
X121874761Y-87976190D01*
X121874761Y-88452380D01*
X121970000Y-88642857D01*
X122065238Y-88738095D01*
X122255714Y-88833333D01*
X122446190Y-88833333D01*
X122731904Y-88738095D01*
X123874761Y-87595238D01*
X123874761Y-88833333D01*
X121874761Y-90071428D02*
X121874761Y-90261904D01*
X121970000Y-90452380D01*
X122065238Y-90547619D01*
X122255714Y-90642857D01*
X122636666Y-90738095D01*
X123112857Y-90738095D01*
X123493809Y-90642857D01*
X123684285Y-90547619D01*
X123779523Y-90452380D01*
X123874761Y-90261904D01*
X123874761Y-90071428D01*
X123779523Y-89880952D01*
X123684285Y-89785714D01*
X123493809Y-89690476D01*
X123112857Y-89595238D01*
X122636666Y-89595238D01*
X122255714Y-89690476D01*
X122065238Y-89785714D01*
X121970000Y-89880952D01*
X121874761Y-90071428D01*
X122065238Y-91500000D02*
X121970000Y-91595238D01*
X121874761Y-91785714D01*
X121874761Y-92261904D01*
X121970000Y-92452380D01*
X122065238Y-92547619D01*
X122255714Y-92642857D01*
X122446190Y-92642857D01*
X122731904Y-92547619D01*
X123874761Y-91404761D01*
X123874761Y-92642857D01*
X122065238Y-93404761D02*
X121970000Y-93500000D01*
X121874761Y-93690476D01*
X121874761Y-94166666D01*
X121970000Y-94357142D01*
X122065238Y-94452380D01*
X122255714Y-94547619D01*
X122446190Y-94547619D01*
X122731904Y-94452380D01*
X123874761Y-93309523D01*
X123874761Y-94547619D01*
M02*
