M48
; DRILL file {KiCad (6.0.7)} date Sat Sep 24 21:41:40 2022
; FORMAT={-:-/ absolute / inch / decimal}
; #@! TF.CreationDate,2022-09-24T21:41:40+01:00
; #@! TF.GenerationSoftware,Kicad,Pcbnew,(6.0.7)
; #@! TF.FileFunction,Plated,1,2,PTH
FMAT,2
INCH
; #@! TA.AperFunction,Plated,PTH,ComponentDrill
T1C0.0315
; #@! TA.AperFunction,Plated,PTH,ComponentDrill
T2C0.0394
; #@! TA.AperFunction,Plated,PTH,ComponentDrill
T3C0.0402
; #@! TA.AperFunction,Plated,PTH,ComponentDrill
T4C0.0469
; #@! TA.AperFunction,Plated,PTH,ComponentDrill
T5C0.0827
%
G90
G05
T1
X3.956Y-2.3418
X4.0952Y-2.481
X4.5837Y-1.9057
X4.5837Y-2.2057
X4.6837Y-1.9057
X4.6837Y-2.2057
X4.7837Y-1.9057
X4.7837Y-2.2057
X4.8837Y-1.9057
X4.8837Y-2.2057
X4.9837Y-1.9057
X4.9837Y-2.2057
X5.0837Y-1.9057
X5.0837Y-2.2057
X5.1837Y-1.9057
X5.1837Y-2.2057
X5.2837Y-1.9057
X5.2837Y-2.2057
T3
X4.3744Y-2.4161
X4.3744Y-2.5161
X4.3744Y-2.6161
X4.3744Y-2.7161
X4.3744Y-2.8161
X4.3744Y-2.9161
X4.3744Y-3.0161
X4.3744Y-3.1161
X4.3744Y-3.2161
X4.3744Y-3.3161
X4.3744Y-3.4161
X4.3744Y-3.5161
X4.3744Y-3.6161
X4.3744Y-3.7161
X4.3744Y-3.8161
X4.3744Y-3.9161
X4.3744Y-4.0161
X4.3744Y-4.1161
X4.3744Y-4.2161
X4.3744Y-4.3161
X4.6244Y-2.4252
X4.7244Y-2.4252
X4.8244Y-2.4252
X5.0744Y-2.4161
X5.0744Y-2.5161
X5.0744Y-2.6161
X5.0744Y-2.7161
X5.0744Y-2.8161
X5.0744Y-2.9161
X5.0744Y-3.0161
X5.0744Y-3.1161
X5.0744Y-3.2161
X5.0744Y-3.3161
X5.0744Y-3.4161
X5.0744Y-3.5161
X5.0744Y-3.6161
X5.0744Y-3.7161
X5.0744Y-3.8161
X5.0744Y-3.9161
X5.0744Y-4.0161
X5.0744Y-4.1161
X5.0744Y-4.2161
X5.0744Y-4.3161
T4
X3.975Y-2.7681
X3.975Y-2.8681
X3.975Y-2.9681
X3.975Y-3.1157
X3.975Y-3.2157
X3.975Y-3.3157
X3.9758Y-3.4657
X3.9758Y-3.5657
X3.9758Y-3.6657
X3.9758Y-3.8157
X3.9758Y-3.9157
X3.9758Y-4.0157
X5.4726Y-3.4719
X5.4726Y-3.5719
X5.4726Y-3.6719
X5.4734Y-2.775
X5.4734Y-2.875
X5.4734Y-2.975
X5.4734Y-3.1226
X5.4734Y-3.2226
X5.4734Y-3.3226
X5.4742Y-3.8219
X5.4742Y-3.9219
X5.4742Y-4.0219
T5
X5.5315Y-2.2638
X5.5315Y-2.5
T2
G00X4.1401Y-2.0827
M15
G01X4.1401Y-2.1614
M16
G05
G00X4.3645Y-2.0039
M15
G01X4.2857Y-2.0039
M16
G05
G00X4.3645Y-2.2402
M15
G01X4.2857Y-2.2402
M16
G05
T0
M30
